<?xml version="1.0" standalone="no"?>
<!DOCTYPE svg PUBLIC "-//W3C//DTD SVG 20010904//EN"
 "http://www.w3.org/TR/2001/REC-SVG-20010904/DTD/svg10.dtd">
<svg version="1.0" xmlns="http://www.w3.org/2000/svg"
 width="400.000000pt" height="400.000000pt" viewBox="0 0 400.000000 400.000000"
 preserveAspectRatio="xMidYMid meet">

<g transform="translate(0.000000,400.000000) scale(0.100000,-0.100000)"
fill="#000000" stroke="none">
<path d="M3330 3883 c0 -5 -1 -678 -3 -1498 l-2 -1490 -25 -55 c-119 -267
-312 -405 -539 -386 -215 18 -279 19 -353 2 -142 -32 -284 -121 -373 -234 -22
-28 -42 -51 -45 -52 -3 0 -23 22 -44 49 -52 69 -161 155 -240 191 -127 58
-250 71 -439 48 -118 -15 -198 -4 -290 40 -113 53 -229 181 -286 317 -34 79
-41 88 -41 48 0 -57 96 -208 187 -294 116 -111 224 -146 402 -134 257 19 347
8 480 -58 73 -35 193 -142 239 -213 l29 -44 52 68 c146 191 363 283 599 254
205 -26 313 -9 428 67 106 70 183 166 252 315 l32 68 0 1499 c0 993 -3 1499
-10 1499 -5 0 -10 -3 -10 -7z"/>
<path d="M770 2351 c0 -1584 -5 -1460 68 -1569 66 -96 144 -158 257 -203 58
-23 68 -24 278 -21 230 2 280 -4 379 -48 68 -30 165 -105 200 -155 18 -25 35
-45 38 -45 4 0 21 20 39 45 62 86 175 157 301 190 55 15 93 16 245 11 112 -4
201 -3 235 4 78 15 186 69 247 124 58 53 126 153 142 212 8 27 11 466 11 1462
l0 1422 -1220 0 -1220 0 0 -1429z m2408 1102 l-3 -298 -1187 -3 -1188 -2 0
300 0 300 1190 0 1190 0 -2 -297z m-9 -360 c-2 -24 -2 -25 -6 -5 l-4 22 -440
0 c-241 0 -439 -2 -439 -5 0 -3 18 -24 40 -46 22 -23 40 -46 40 -52 0 -5 -18
11 -41 36 -53 61 -96 74 -200 58 -55 -8 -90 -9 -124 -1 -56 13 -110 5 -147
-21 -21 -15 -26 -16 -22 -4 4 8 10 15 15 15 5 0 9 5 9 10 0 7 -178 10 -515 10
l-515 0 -3 -307 -2 -308 -3 313 -2 312 1180 0 1180 0 -1 -27z m-919 -59 c46
-42 59 -86 41 -146 -11 -37 -11 -41 13 -63 33 -31 41 -67 27 -124 -6 -25 -16
-64 -22 -86 -12 -46 -7 -111 21 -245 23 -109 24 -140 9 -193 -29 -105 -162
-173 -268 -136 -38 13 -40 23 -5 25 48 3 104 75 104 135 0 43 -50 132 -116
208 -30 35 -58 76 -61 92 -9 48 -26 21 -19 -32 7 -49 7 -49 -23 -49 -16 0 -31
6 -34 14 -3 8 -24 20 -46 26 -49 13 -61 33 -61 102 0 45 -5 59 -30 90 -39 48
-49 116 -26 172 10 24 13 43 7 49 -5 5 -14 -5 -22 -25 l-13 -33 -3 27 c-6 38
27 96 86 151 77 72 128 84 208 48 37 -17 43 -18 63 -4 61 43 120 42 170 -3z
m-446 11 c-4 -8 -14 -15 -23 -15 -14 1 -13 3 3 15 25 19 27 19 20 0z m1363
-1582 c-1 -296 -2 -56 -2 532 0 589 1 831 2 538 2 -292 2 -774 0 -1070z
m-1422 1567 c-3 -5 -16 -10 -28 -9 -21 0 -21 1 -2 9 28 12 37 12 30 0z m-122
-37 c-7 -2 -19 -2 -25 0 -7 3 -2 5 12 5 14 0 19 -2 13 -5z m752 -13 c3 -5 1
-10 -4 -10 -6 0 -11 5 -11 10 0 6 2 10 4 10 3 0 8 -4 11 -10z m-641 -9 c6 -8
-186 -141 -204 -141 -5 0 -10 4 -10 10 0 5 -12 16 -26 23 l-27 14 59 34 c94
53 194 83 208 60z m733 3 c-3 -3 -12 -4 -19 -1 -8 3 -5 6 6 6 11 1 17 -2 13
-5z m-946 -28 c-6 -8 -21 -16 -32 -19 -24 -6 -19 1 13 19 31 16 32 16 19 0z
m1000 -16 c25 -14 24 -36 -2 -96 -21 -46 -21 -50 -5 -99 23 -73 20 -96 -15
-145 -18 -24 -47 -70 -65 -101 -30 -50 -66 -80 -80 -66 -10 10 -24 124 -18
152 4 17 16 48 27 70 23 45 28 148 9 167 -7 7 -12 17 -12 23 0 12 77 45 108
45 12 0 22 5 22 10 0 13 -40 13 -95 -2 -50 -14 -57 -11 -49 19 5 16 15 23 43
26 74 8 113 7 132 -3z m70 -57 c-12 -20 -14 -14 -5 12 4 9 9 14 11 11 3 -2 0
-13 -6 -23z m-897 -13 c-4 -19 -1 -38 10 -54 10 -17 14 -35 10 -56 -8 -36 18
-109 46 -135 12 -11 20 -31 20 -52 0 -18 6 -49 14 -68 8 -18 12 -43 9 -55 -5
-19 -11 -21 -100 -18 l-95 3 -13 40 c-9 26 -34 58 -70 90 -55 49 -55 51 -55
106 0 51 -3 58 -35 86 -19 17 -35 36 -35 41 0 15 40 62 54 62 18 0 54 -41 58
-67 3 -20 10 -16 87 43 46 35 87 64 92 64 5 0 6 -13 3 -30z m-308 -132 c5 -8
1 -5 -8 5 -10 11 -19 25 -19 33 -1 8 -2 20 -3 27 -1 6 0 17 3 22 3 6 8 -9 11
-32 4 -23 10 -47 16 -55z m1161 50 c-3 -8 -6 -5 -6 6 -1 11 2 17 5 13 3 -3 4
-12 1 -19z m-1117 -89 c0 -5 -4 -9 -10 -9 -5 0 -10 7 -10 16 0 8 5 12 10 9 6
-3 10 -10 10 -16z m1157 -1 c-3 -8 -6 -5 -6 6 -1 11 2 17 5 13 3 -3 4 -12 1
-19z m-1166 -71 c-8 -8 -11 -7 -11 4 0 20 13 34 18 19 3 -7 -1 -17 -7 -23z
m1110 -63 c-50 -56 -55 -93 -13 -95 21 -1 18 -3 -13 -9 -22 -4 -41 -7 -43 -5
-8 7 40 95 69 126 49 53 49 38 0 -17z m-1157 -72 c-9 -40 -20 -69 -25 -67 -4
3 -6 13 -3 23 3 9 10 28 14 42 5 14 11 38 15 54 3 15 8 26 11 24 2 -3 -3 -37
-12 -76z m134 43 c52 -37 78 -75 69 -99 -9 -22 -177 -24 -177 -3 0 39 40 137
56 137 2 0 26 -16 52 -35z m1411 -51 c18 -9 30 -18 27 -21 -2 -2 -14 1 -26 7
-16 9 -71 11 -189 7 -128 -4 -142 -4 -63 3 57 4 106 10 109 14 13 12 111 6
142 -10z m-1029 -44 c9 -1 6 -5 -8 -10 -24 -10 -52 -4 -52 12 0 6 10 8 23 4
12 -3 29 -6 37 -6z m1044 -27 c71 -52 56 -176 -26 -201 -18 -6 -98 -16 -178
-22 -126 -9 -271 -28 -349 -46 -21 -5 -23 -3 -17 23 4 15 13 34 20 41 12 12
142 32 316 48 99 10 87 18 -15 11 -49 -4 -141 -9 -202 -13 l-113 -7 0 30 c0
17 6 35 13 41 6 5 82 13 168 17 93 4 173 12 195 21 38 14 37 14 -41 9 -44 -3
-111 -10 -150 -16 -38 -6 -97 -9 -130 -7 -59 3 -60 4 -63 34 l-3 31 188 17
c303 27 337 26 387 -11z m-2117 -120 c-2 -27 -3 -5 -3 47 0 52 1 74 3 48 2
-27 2 -69 0 -95z m2183 116 c0 -6 -4 -7 -10 -4 -5 3 -10 11 -10 16 0 6 5 7 10
4 6 -3 10 -11 10 -16z m-1781 7 c-2 -2 -24 -6 -49 -10 -31 -4 -40 -3 -30 4 13
9 89 15 79 6z m69 -3 c-10 -2 -28 -2 -40 0 -13 2 -5 4 17 4 22 1 32 -1 23 -4z
m786 -62 c20 -27 36 -54 36 -59 0 -20 -34 -29 -128 -36 -100 -6 -182 -23 -182
-37 0 -12 3 -12 101 5 128 22 233 31 225 18 -3 -5 -34 -13 -68 -17 -84 -8
-161 -27 -147 -36 7 -4 26 -3 43 2 17 5 66 9 108 9 61 0 78 -3 78 -14 0 -30
-30 -44 -127 -55 -54 -7 -174 -24 -268 -37 -93 -14 -215 -32 -270 -40 -55 -8
-111 -16 -125 -19 -24 -5 -24 -5 -6 9 10 9 39 18 65 21 53 8 163 33 170 40 13
14 -13 14 -65 1 -97 -24 -167 -31 -162 -15 3 9 41 19 103 29 54 8 100 20 102
27 4 12 -53 9 -117 -8 -68 -17 -127 -7 -89 17 10 6 9 57 -2 93 -5 18 37 28
161 37 52 3 97 9 100 11 3 3 -71 4 -163 2 l-169 -4 -13 40 c-8 21 -13 40 -12
41 10 9 293 21 514 23 l271 1 36 -49z m-954 35 c0 -2 -7 -7 -16 -10 -8 -3 -12
-2 -9 4 6 10 25 14 25 6z m1910 -71 c0 -35 -3 -66 -7 -68 -5 -3 -8 28 -8 68 0
40 3 71 8 68 4 -2 7 -33 7 -68z m-1957 18 c-5 -11 -25 -39 -47 -64 -21 -24
-34 -35 -28 -24 6 11 19 28 30 38 11 10 26 32 32 48 14 32 25 34 13 2z m154 5
c13 -12 23 -32 23 -44 0 -17 8 -24 30 -29 50 -11 66 -64 31 -106 -15 -18 -16
-28 -8 -46 7 -16 7 -30 -1 -48 -13 -27 -57 -44 -75 -26 -8 8 -16 6 -29 -6 -25
-22 -82 -22 -107 1 -11 10 -23 35 -26 57 -4 21 -10 39 -15 39 -4 0 -13 14 -20
30 -15 37 0 81 35 100 13 7 29 26 36 42 24 58 84 75 126 36z m-220 -219 c14
-21 23 -43 21 -50 -6 -19 -58 90 -57 119 2 27 2 27 6 -2 3 -16 16 -46 30 -67z
m-190 -266 c-1 -65 -3 -12 -3 117 0 129 2 182 3 118 2 -65 2 -171 0 -235z
m2109 310 c-4 -5 -56 -9 -114 -9 l-107 -1 102 6 c56 3 105 9 109 14 4 4 10 5
12 2 3 -3 2 -8 -2 -12z m-271 -23 c-52 -11 -98 -12 -91 -2 2 4 33 8 68 9 58 1
60 0 23 -7z m-122 -17 c-13 -2 -33 -2 -45 0 -13 2 -3 4 22 4 25 0 35 -2 23 -4z
m-91 -10 c-15 -3 -29 -17 -37 -36 -16 -36 -20 -22 -5 17 7 20 16 26 37 25 25
-2 26 -2 5 -6z m-72 -7 c0 -16 -14 -36 -25 -36 -17 0 -28 17 -20 30 6 10 45
15 45 6z m-417 -36 c10 -16 39 -48 66 -70 47 -40 47 -40 59 -129 8 -55 25
-122 47 -175 40 -100 45 -150 16 -166 -11 -5 -27 -7 -37 -3 -12 4 -15 2 -12
-8 2 -8 18 -16 34 -17 33 -4 45 -18 39 -47 -3 -11 -7 -58 -9 -104 l-4 -84 -36
-12 c-24 -8 -38 -9 -42 -3 -4 6 -25 8 -51 4 -26 -3 -51 -1 -62 5 -23 15 -72
-7 -86 -39 -5 -12 -13 -22 -17 -22 -14 0 -8 33 18 115 16 49 27 105 28 145 1
61 -3 73 -67 201 -53 105 -80 147 -122 189 -32 31 -55 63 -55 75 1 22 33 122
44 132 5 5 176 38 221 42 6 1 19 -12 28 -29z m59 -3 c66 -62 148 -69 237 -21
52 28 46 28 65 8 24 -23 20 -77 -18 -252 -19 -86 -37 -177 -41 -202 -6 -46
-37 -110 -53 -110 -5 0 -12 31 -15 69 -4 44 -17 95 -37 142 -19 46 -36 110
-45 170 -13 94 -27 139 -44 139 -11 0 -91 70 -91 81 0 14 5 11 42 -24z m-962
-42 c14 -19 14 -19 -2 -6 -10 7 -18 18 -18 24 0 6 1 8 3 6 1 -2 9 -13 17 -24z
m604 7 c4 -10 -1 -38 -9 -62 -8 -23 -15 -49 -15 -57 0 -8 28 -43 61 -78 63
-66 72 -95 27 -95 -23 0 -106 45 -143 77 -28 24 -99 120 -120 162 -21 42 -14
48 75 56 36 4 70 8 75 10 25 9 44 4 49 -13z m713 -74 c-2 -13 -4 -5 -4 17 -1
22 1 32 4 23 2 -10 2 -28 0 -40z m-980 7 c6 -14 7 -25 3 -25 -5 0 -11 9 -15
19 -4 14 -17 21 -43 24 l-37 4 40 1 c34 2 42 -2 52 -23z m-107 5 c0 -5 -15 -9
-32 -9 l-33 1 30 8 c17 4 31 8 33 9 1 0 2 -3 2 -9z m-71 -16 c9 -8 -65 -2 -84
6 -13 6 -2 7 30 3 28 -3 52 -7 54 -9z m1148 -86 c-2 -13 -4 -5 -4 17 -1 22 1
32 4 23 2 -10 2 -28 0 -40z m-932 32 c3 -5 1 -10 -4 -10 -6 0 -11 5 -11 10 0
6 2 10 4 10 3 0 8 -4 11 -10z m60 -70 c10 -11 16 -20 13 -20 -3 0 -13 9 -23
20 -10 11 -16 20 -13 20 3 0 13 -9 23 -20z m856 -31 c-9 -22 -10 -22 -10 -3
-1 11 2 24 6 27 12 12 14 0 4 -24z m-786 -29 c10 -11 13 -20 7 -20 -6 0 -16 9
-22 20 -6 11 -9 20 -7 20 2 0 12 -9 22 -20z m772 -47 c-3 -10 -5 -2 -5 17 0
19 2 27 5 18 2 -10 2 -26 0 -35z m-718 -37 c0 -6 -5 -1 -11 12 -6 12 -15 22
-20 22 -4 0 -8 6 -8 13 1 6 10 1 20 -12 11 -13 20 -28 19 -35z m66 35 c3 -6
25 -13 49 -16 23 -4 47 -10 53 -13 20 -13 103 -192 103 -222 0 -36 -30 -182
-40 -193 -4 -5 -33 -10 -64 -12 -50 -2 -56 -1 -50 14 52 121 38 219 -53 371
-18 30 -33 61 -33 68 0 14 26 16 35 3z m630 -92 l-15 -64 6 60 c6 58 12 80 20
73 2 -2 -3 -33 -11 -69z m-1488 -486 c-1 -103 -2 -21 -2 182 0 204 1 288 2
188 2 -100 2 -266 0 -370z m868 405 c14 -26 25 -53 25 -60 -1 -11 -69 119 -70
132 0 8 20 -23 45 -72z m590 -38 c-10 -22 -20 -39 -21 -37 -2 2 4 22 13 45 9
23 18 40 21 37 3 -3 -3 -23 -13 -45z m-571 -161 c-15 -40 -29 -90 -31 -113
l-5 -41 -71 5 -72 4 64 6 65 5 16 65 c9 36 22 75 28 87 7 12 12 41 13 65 1 41
1 42 11 15 8 -22 4 -41 -18 -98z m527 88 c-10 -9 -11 -8 -5 6 3 10 9 15 12 12
3 -3 0 -11 -7 -18z m-24 -124 c-2 -21 -4 -4 -4 37 0 41 2 58 4 38 2 -21 2 -55
0 -75z m-427 -93 c0 -32 -26 -43 -36 -15 -9 21 3 45 21 45 10 0 15 -10 15 -30z
m50 11 c0 -11 -4 -23 -10 -26 -6 -4 -10 5 -10 19 0 14 5 26 10 26 6 0 10 -9
10 -19z m138 -13 c-2 -19 -10 -24 -40 -26 -27 -2 -38 1 -38 10 0 22 22 38 53
38 24 0 28 -4 25 -22z m95 10 c8 -24 -5 -38 -34 -38 -21 0 -29 5 -29 18 0 10
3 22 7 25 11 12 51 8 56 -5z m95 -15 c3 -21 -1 -23 -37 -23 -45 0 -49 5 -24
32 22 25 57 19 61 -9z m69 -5 c-3 -8 -6 -5 -6 6 -1 11 2 17 5 13 3 -3 4 -12 1
-19z m151 -5 c-27 -2 -69 -2 -95 0 -27 2 -5 3 47 3 52 0 74 -1 48 -3z m96
-100 c-5 -83 -14 -77 -14 8 0 43 4 69 9 61 4 -7 7 -38 5 -69z m-987 20 c-3
-10 -5 -4 -5 12 0 17 2 24 5 18 2 -7 2 -21 0 -30z m943 -13 l0 -50 -192 -2
-193 -3 -3 -208 -2 -208 -51 3 -51 3 -2 205 -1 205 -203 5 c-111 3 -202 8
-202 13 0 4 0 25 0 47 l0 40 450 0 450 0 0 -50z m-943 -32 c-3 -8 -6 -5 -6 6
-1 11 2 17 5 13 3 -3 4 -12 1 -19z m8 -258 c0 -204 -1 -210 -20 -209 -11 0
-15 3 -9 5 8 4 12 65 13 201 2 169 4 213 14 213 1 0 2 -94 2 -210z m228 203
c-7 -2 -16 -28 -20 -56 l-7 -52 -7 40 c-3 22 -9 48 -14 58 -6 14 -2 17 26 16
19 0 28 -3 22 -6z m177 -3 c0 -5 -2 -10 -4 -10 -3 0 -8 5 -11 10 -3 6 -1 10 4
10 6 0 11 -4 11 -10z m196 1 c-3 -4 -6 -97 -6 -205 -1 -113 -5 -196 -11 -196
-5 0 -9 86 -9 205 0 179 2 205 16 205 8 0 13 -4 10 -9z m363 -53 c-1 -68 -6
-61 -11 15 -2 26 0 47 4 47 5 0 7 -28 7 -62z m-804 -5 c5 -35 20 -100 32 -145
6 -26 23 -22 23 4 0 13 8 58 17 100 l16 78 59 0 58 0 0 -181 0 -180 -32 3 -33
3 -5 125 c-6 140 -2 144 -46 -52 l-18 -78 -33 0 c-18 0 -33 2 -33 4 0 18 -44
214 -51 226 -5 9 -9 -34 -9 -107 l0 -123 -35 0 -35 0 0 180 0 180 60 0 59 0 6
-37z m765 2 l0 -35 -95 0 -95 0 0 -30 0 -30 85 0 85 0 0 -35 0 -34 -82 -3 -83
-3 -3 -37 -3 -38 95 0 96 0 0 -40 0 -40 -150 0 -150 0 0 180 0 180 150 0 150
0 0 -35z m-1580 -73 c0 -15 -2 -15 -10 -2 -13 20 -13 33 0 25 6 -3 10 -14 10
-23z m1608 -28 c-4 -3 -12 5 -18 18 -12 22 -12 22 6 6 10 -10 15 -20 12 -24z
m689 -6 c-3 -8 -6 -5 -6 6 -1 11 2 17 5 13 3 -3 4 -12 1 -19z m-2267 -33 c0
-5 -5 -3 -10 5 -5 8 -10 20 -10 25 0 6 5 3 10 -5 5 -8 10 -19 10 -25z m2241
-12 c-8 -15 -10 -15 -11 -2 0 17 10 32 18 25 2 -3 -1 -13 -7 -23z m-2167 -82
c-6 -6 -63 61 -64 73 0 5 15 -8 34 -30 19 -21 32 -41 30 -43z m1449 22 c-23
-2 -64 -2 -90 0 -26 2 -7 3 42 3 50 0 71 -1 48 -3z m659 -15 c-11 -13 -36 -31
-54 -42 -29 -16 -28 -14 12 22 48 44 78 57 42 20z m-552 -119 c22 -6 21 -7
-10 -8 l-35 -1 5 62 4 63 6 -55 c4 -47 8 -55 30 -61z m-1525 91 c3 -6 -1 -7
-9 -4 -18 7 -21 14 -7 14 6 0 13 -4 16 -10z m65 -40 c0 -5 -4 -10 -9 -10 -6 0
-13 5 -16 10 -3 6 1 10 9 10 9 0 16 -4 16 -10z m1920 6 c0 -3 -4 -8 -10 -11
-5 -3 -10 -1 -10 4 0 6 5 11 10 11 6 0 10 -2 10 -4z m-50 -30 c0 -2 -9 -6 -20
-9 -11 -3 -20 -1 -20 4 0 5 9 9 20 9 11 0 20 -2 20 -4z m-1764 -21 c30 -16 25
-19 -13 -9 -13 4 -23 10 -23 15 0 12 3 11 36 -6z m271 -11 c-3 -3 -12 -4 -19
-1 -8 3 -5 6 6 6 11 1 17 -2 13 -5z m282 -12 c32 -3 39 -7 28 -14 -19 -10
-107 10 -107 24 0 6 8 7 18 3 9 -4 37 -10 61 -13z m1080 2 c8 -7 -143 -2 -174
6 -16 4 15 5 70 2 55 -3 102 -6 104 -8z m48 10 c-3 -3 -12 -4 -19 -1 -8 3 -5
6 6 6 11 1 17 -2 13 -5z m-1499 -11 c-21 -2 -57 -2 -80 0 -24 2 -7 4 37 4 44
0 63 -2 43 -4z m552 -3 c0 -6 -23 -9 -52 -8 l-53 1 50 7 c28 4 51 8 53 8 1 1
2 -2 2 -8z m465 1 c-13 -12 -59 -15 -165 -10 l-85 3 110 6 c61 3 119 7 130 8
11 1 15 -2 10 -7z m-312 -8 c-7 -2 -19 -2 -25 0 -7 3 -2 5 12 5 14 0 19 -2 13
-5z m-244 -29 c13 -13 -10 -12 -35 2 l-29 16 30 -7 c16 -4 32 -9 34 -11z m366
-39 c-52 -32 -70 -32 -25 0 19 13 42 24 50 24 8 1 -3 -10 -25 -24z m-235 -55
c0 -5 -2 -10 -4 -10 -3 0 -8 5 -11 10 -3 6 -1 10 4 10 6 0 11 -4 11 -10z m145
-10 c-10 -11 -20 -18 -23 -16 -5 6 21 35 32 36 5 0 1 -9 -9 -20z m-65 -50 c6
8 10 11 10 5 0 -31 -17 -34 -41 -8 -23 26 -23 27 -1 8 20 -16 25 -17 32 -5z"/>
<path d="M887 3652 c-15 -16 -17 -45 -17 -199 0 -221 -2 -217 120 -211 58 2
84 7 90 18 13 20 13 202 0 235 -11 30 -36 43 -52 27 -9 -9 -7 -16 5 -30 9 -10
17 -26 17 -35 0 -12 -7 -15 -34 -10 -19 3 -36 1 -40 -6 -12 -19 -26 -12 -26
13 0 13 7 29 15 36 19 16 19 40 1 40 -22 0 -46 -40 -46 -78 0 -22 8 -41 26
-59 21 -21 32 -25 65 -20 l39 5 0 -49 0 -49 -70 0 -70 0 0 175 0 175 69 0 c60
0 69 -2 74 -20 7 -29 37 -26 37 4 0 44 -24 56 -109 56 -63 0 -81 -4 -94 -18z
m133 -242 c0 -5 -7 -10 -15 -10 -8 0 -15 5 -15 10 0 6 7 10 15 10 8 0 15 -4
15 -10z"/>
<path d="M1158 3655 c-15 -8 -29 -23 -33 -34 -6 -20 13 -71 27 -71 5 0 1 -11
-8 -25 -16 -25 -16 -27 6 -50 l23 -25 -26 0 c-33 0 -52 -31 -37 -60 6 -12 21
-20 35 -20 14 0 25 -6 26 -12 0 -7 1 -35 2 -63 2 -37 6 -50 17 -50 11 0 16 15
20 58 4 49 9 60 30 70 37 18 38 60 3 85 -15 10 -38 23 -50 26 -37 12 -27 28
12 20 39 -7 48 8 15 28 -11 7 -20 18 -20 24 0 7 -9 14 -21 17 -15 4 -20 12
-17 29 4 28 45 38 54 14 8 -20 34 -21 34 -1 0 18 -35 55 -52 55 -7 -1 -25 -7
-40 -15z m71 -229 c9 -11 9 -16 0 -21 -10 -7 -28 10 -29 28 0 12 17 8 29 -7z
m-59 -16 c0 -5 -7 -10 -15 -10 -8 0 -15 5 -15 10 0 6 7 10 15 10 8 0 15 -4 15
-10z"/>
<path d="M2006 3649 c-30 -24 -34 -63 -10 -91 16 -17 15 -19 -10 -39 -36 -28
-37 -89 -1 -124 55 -56 145 -12 145 71 0 24 -7 33 -83 98 -27 22 -36 37 -31
49 8 22 32 22 56 0 13 -12 21 -14 29 -6 8 8 4 18 -14 37 -32 31 -46 32 -81 5z
m75 -160 c14 -14 18 -27 13 -42 -9 -30 -15 -36 -44 -39 -18 -2 -24 1 -20 12 2
8 4 32 3 53 -1 43 15 49 48 16z m-71 -28 c0 -6 -4 -13 -10 -16 -5 -3 -10 1
-10 9 0 9 5 16 10 16 6 0 10 -4 10 -9z"/>
<path d="M2526 3649 c-31 -24 -35 -68 -8 -92 23 -21 62 -22 62 -2 0 8 -6 15
-14 15 -20 0 -37 25 -30 44 8 21 32 20 56 -1 13 -12 21 -14 29 -6 8 8 4 18
-14 37 -32 31 -46 32 -81 5z"/>
<path d="M2908 3659 c-31 -18 -41 -47 -28 -80 7 -16 16 -29 21 -29 5 0 3 -11
-6 -23 -14 -22 -14 -26 6 -50 l20 -27 -25 0 c-18 0 -30 -8 -38 -25 -13 -29 1
-52 35 -57 19 -3 23 -11 27 -61 3 -31 8 -57 13 -57 4 0 12 0 17 0 6 0 10 25
10 54 0 50 2 56 28 68 30 15 41 51 21 74 -7 9 -30 23 -51 31 -48 19 -50 36 -3
27 39 -7 48 8 15 28 -11 7 -20 18 -20 24 0 7 -9 14 -21 17 -15 4 -20 12 -17
29 4 29 35 36 53 11 10 -13 17 -15 25 -7 15 15 3 39 -26 53 -30 13 -34 13 -56
0z m75 -245 c-5 -18 -26 -9 -35 15 -8 23 -8 23 14 9 13 -9 22 -19 21 -24z
m-63 -4 c0 -5 -7 -10 -15 -10 -8 0 -15 5 -15 10 0 6 7 10 15 10 8 0 15 -4 15
-10z"/>
<path d="M1468 3523 c-14 -13 -20 -14 -32 -4 -9 7 -23 10 -32 7 -14 -5 -13 -9
5 -32 31 -39 28 -57 -8 -49 -17 3 -39 2 -50 -4 -30 -17 -37 6 -12 40 34 46 10
68 -29 27 -47 -51 -5 -137 68 -138 36 0 82 37 82 66 0 26 39 74 61 74 22 0 59
-33 59 -53 0 -25 -27 -49 -53 -49 -20 0 -27 -6 -27 -19 0 -29 52 -25 84 7 56
56 18 144 -61 144 -23 0 -46 -7 -55 -17z m-76 -115 c-9 -9 -15 -9 -24 0 -9 9
-7 12 12 12 19 0 21 -3 12 -12z"/>
<path d="M1650 3515 c-17 -18 -21 -28 -13 -36 8 -8 20 -5 42 12 26 19 35 21
55 11 29 -13 41 -44 27 -71 -16 -28 -48 -35 -76 -17 -30 20 -45 20 -45 2 0
-39 86 -60 124 -31 16 12 21 12 40 0 58 -41 136 1 136 73 0 53 -33 85 -86 80
-50 -4 -56 -33 -7 -33 43 0 68 -25 59 -59 -16 -63 -106 -51 -106 15 0 71 -100
107 -150 54z"/>
<path d="M2172 3517 c-33 -35 -30 -99 5 -127 27 -21 54 -23 60 -5 1 6 -11 18
-27 27 -35 20 -40 56 -12 81 38 34 81 11 91 -49 5 -29 14 -44 38 -59 29 -18
32 -25 35 -80 3 -62 16 -77 48 -55 13 9 13 12 -2 24 -20 15 -26 96 -8 96 6 0
22 11 35 25 51 51 18 145 -51 145 -28 0 -34 -4 -34 -21 0 -16 4 -19 19 -14 22
7 61 -25 61 -50 0 -8 -9 -24 -21 -36 -34 -34 -89 -4 -89 48 0 64 -103 98 -148
50z"/>
<path d="M2692 3517 c-49 -52 -12 -147 56 -147 33 0 82 34 82 56 0 20 -16 17
-50 -7 -28 -21 -30 -21 -54 -5 -31 20 -34 56 -8 79 25 23 41 21 69 -5 18 -17
26 -19 35 -10 9 9 6 18 -12 37 -31 33 -88 34 -118 2z"/>
<path d="M3055 3523 c-19 -19 -16 -42 7 -57 24 -15 53 13 44 42 -9 27 -32 34
-51 15z"/>
<path d="M2496 3508 c-41 -58 -1 -138 69 -138 58 0 99 61 79 118 -12 33 -39
51 -55 35 -8 -8 -6 -17 10 -34 24 -26 26 -39 9 -61 -22 -28 -55 -31 -77 -9
-26 26 -26 46 -1 71 12 12 18 25 15 30 -10 17 -33 11 -49 -12z"/>
<path d="M3052 3438 c-30 -30 3 -77 40 -57 30 16 16 69 -17 69 -6 0 -16 -5
-23 -12z"/>
<path d="M1496 3334 c-8 -21 11 -44 35 -44 19 0 35 33 24 50 -10 16 -52 12
-59 -6z"/>
<path d="M1800 2737 c0 -16 35 -37 61 -37 37 0 38 16 2 22 -16 3 -36 9 -45 13
-10 4 -18 5 -18 2z"/>
<path d="M1823 2667 c2 -6 18 -15 35 -19 22 -6 32 -15 32 -28 0 -24 18 -36 33
-21 18 18 25 13 29 -16 3 -28 3 -28 16 -6 14 26 2 67 -25 81 -28 14 -124 21
-120 9z"/>
<path d="M2148 2568 c-16 -5 -28 -14 -28 -20 0 -6 7 -7 18 -3 9 4 36 11 60 15
23 4 45 10 49 13 10 11 -69 7 -99 -5z"/>
<path d="M2173 2523 c-12 -2 -27 -11 -33 -19 -15 -17 -10 -17 27 -3 15 6 46
14 68 19 l40 8 -40 0 c-22 -1 -50 -3 -62 -5z"/>
<path d="M2163 2470 c-36 -15 -28 -30 9 -19 18 5 47 9 65 9 17 0 35 5 38 10 8
13 -81 12 -112 0z"/>
<path d="M2208 2428 c-21 -6 -38 -15 -38 -20 0 -6 11 -7 26 -4 15 4 39 10 55
13 16 3 26 9 23 14 -6 11 -17 10 -66 -3z"/>
<path d="M2225 2383 c-37 -9 -43 -26 -6 -19 18 3 40 6 47 6 8 0 14 5 14 10 0
10 -20 11 -55 3z"/>
<path d="M1375 2340 c-4 -6 10 -10 34 -10 23 0 41 5 41 10 0 6 -15 10 -34 10
-19 0 -38 -4 -41 -10z"/>
<path d="M1755 2310 c3 -5 19 -10 35 -10 16 0 32 5 35 10 4 6 -10 10 -35 10
-25 0 -39 -4 -35 -10z"/>
<path d="M1795 2159 c-16 -4 -62 -13 -100 -19 -39 -6 -77 -15 -85 -20 -29 -18
0 -21 62 -6 34 8 90 18 122 21 67 8 86 13 86 26 0 11 -44 10 -85 -2z"/>
<path d="M2058 1423 c12 -2 32 -2 45 0 12 2 2 4 -23 4 -25 0 -35 -2 -22 -4z"/>
<path d="M2080 1380 c0 -5 4 -10 9 -10 6 0 13 5 16 10 3 6 -1 10 -9 10 -9 0
-16 -4 -16 -10z"/>
</g>
</svg>
